PathFileType	3	(X/Y/Z)	F:\ViconData\AntennenMessung\Messung1\Session1\ID14.trc
DataRate	CameraRate	NumFrames	NumMarkers	Units	OrigDataRate	OrigDataStartFrame	OrigNumFrames
120.0	120.0	6	70	mm	120.0	1456	1940	
Frame#	Time	Ashort			Along			Atop			A4			Bshort			Blong			Btop			B4			Cshort			Clong			Ctop			C4			Dshort			Dlong			Dtop			D4			Eshort			Elong			Etop			E4			Fshort			Flong			Ftop			F4			Gshort			Glong			Gtop			G4			Hshort			Hlong			Htop			H4			I1			I2			I3			I4			I5			WandAshort			WandAlong			WandAtop			WandA4			WandA15			WandBshort			WandB4			WandB5			WandBtop			WandBlong			WandCshort			WandClong			WandCtop			WandC4			WandC5			Acenter			Aantenna			Bcenter			Bantenna			Ccenter			Cantenna			Dcenter			Dantenna			Ecenter			Eantenna			Fcenter			Fantenna			Gcenter			Gantenna			Hcenter			Hantenna			Icenter			Iantenna			
		X1	Y1	Z1	X2	Y2	Z2	X3	Y3	Z3	X4	Y4	Z4	X5	Y5	Z5	X6	Y6	Z6	X7	Y7	Z7	X8	Y8	Z8	X9	Y9	Z9	X10	Y10	Z10	X11	Y11	Z11	X12	Y12	Z12	X13	Y13	Z13	X14	Y14	Z14	X15	Y15	Z15	X16	Y16	Z16	X17	Y17	Z17	X18	Y18	Z18	X19	Y19	Z19	X20	Y20	Z20	X21	Y21	Z21	X22	Y22	Z22	X23	Y23	Z23	X24	Y24	Z24	X25	Y25	Z25	X26	Y26	Z26	X27	Y27	Z27	X28	Y28	Z28	X29	Y29	Z29	X30	Y30	Z30	X31	Y31	Z31	X32	Y32	Z32	X33	Y33	Z33	X34	Y34	Z34	X35	Y35	Z35	X36	Y36	Z36	X37	Y37	Z37	X38	Y38	Z38	X39	Y39	Z39	X40	Y40	Z40	X41	Y41	Z41	X42	Y42	Z42	X43	Y43	Z43	X44	Y44	Z44	X45	Y45	Z45	X46	Y46	Z46	X47	Y47	Z47	X48	Y48	Z48	X49	Y49	Z49	X50	Y50	Z50	X51	Y51	Z51	X52	Y52	Z52	X53	Y53	Z53	X54	Y54	Z54	X55	Y55	Z55	X56	Y56	Z56	X57	Y57	Z57	X58	Y58	Z58	X59	Y59	Z59	X60	Y60	Z60	X61	Y61	Z61	X62	Y62	Z62	X63	Y63	Z63	X64	Y64	Z64	X65	Y65	Z65	X66	Y66	Z66	X67	Y67	Z67	X68	Y68	Z68	X69	Y69	Z69	X70	Y70	Z70	
1456	12.125	-1038.1993	214.5912	-1644.0913	-1109.3707	204.19014	-1599.4266	-1063.5703	173.02115	-1625.8438	-1054.1356	262.27603	-1634.8524	-1352.6619	235.16028	1003.4946	-1281.337	227.38934	1052.2045	-1322.735	193.95828	1020.8728	-1284.3433	288.00409	1052.6375	813.95569	187.71075	1209.5138	892.2832	178.46646	1178.9854	844.55402	145.45323	1198.2916	861.1792	292.34299	1168.453	1115.83	209.7238	-1401.6305	1056.3563	194.12245	-1460.174	1095.2438	162.50757	-1423.7458	1069.7527	238.92599	-1425.8646	-1204.6439	1686.1088	-1563.0338	-1129.1261	1688.348	-1606.2328	-1173.1376	1724.4684	-1581.95	-1134.0011	1581.0499	-1603.8474	-1239.5524	1699.0405	1119.4507	-1309.4368	1698.9528	1072.0051	-1270.3617	1736.1888	1096.8616	-1245.5255	1592.6721	1110.6453	988.85663	1664.2435	1162.208	957.37183	1700.5166	1183.8704	921.98529	1662.2963	1214.8943	939.85699	1659.4438	1159.8302	999.16217	1668.4525	-1579.3558	1058.9301	1670.1495	-1518.677	1025.0746	1708.0714	-1551.12	1059.3534	1672.1615	-1585.3713	-238.07657	1170.4176	-194.63943	-153.36037	1173.0483	-193.85094	-201.04655	1208.8971	-193.90718	-202.30421	1171.3042	-162.72513	-200.57297	1172.849	-241.63815																																														-1068.5114	210.16135	-1625.0685	-1073.6536	248.81244	-1624.2616	-1321.3522	231.74902	1024.877	-1319.9338	270.50629	1028.9835	848.23096	183.66553	1196.1548	851.96075	222.42622	1193.9873	1088.9664	202.6769	-1428.0736	1082.979	240.99278	-1432.2018	-1171.9171	1687.0791	-1581.7546	-1170.6448	1648.1003	-1581.551	-1271.1068	1699.0009	1098.028	-1271.8878	1660.0278	1099.2502	952.8374	1705.7405	1186.99	972.84167	1733.9092	1168.8971	1026.5818	1669.231	-1551.5182	1028.0939	1630.2623	-1551.9177	-199.88487	1171.6035	-194.28395	-198.67072	1132.6244	-194.67773
1457	12.133333	-1038.1962	214.576	-1644.0668	-1109.3658	204.19052	-1599.4165	-1063.5657	173.00729	-1625.8422	-1054.0881	262.25531	-1634.9365	-1352.7195	235.14278	1003.5419	-1281.3761	227.32011	1052.2496	-1322.675	193.91492	1020.8653	-1284.3442	287.98749	1052.651	813.9798	187.73047	1209.4384	892.33527	178.49509	1179.0426	844.59589	145.46492	1198.3218	861.11322	292.40051	1168.6588	1115.9003	210.06114	-1401.8005	1056.3621	194.13672	-1460.1848	1095.3208	162.5743	-1423.7924	1069.7593	238.9429	-1425.8506	-1204.642	1686.1101	-1562.9961	-1129.1251	1688.3477	-1606.2299	-1173.1099	1724.3989	-1581.9525	-1134.0033	1581.0573	-1603.8273	-1239.5869	1699.1095	1119.4707	-1309.4009	1698.9176	1071.9811	-1270.3789	1736.2155	1096.871	-1245.5725	1592.7971	1110.6913	988.80853	1664.2142	1162.1824	957.37018	1700.5537	1183.856	921.99646	1662.264	1214.8953	939.83997	1659.4252	1159.8406	999.17584	1668.4363	-1579.3491	1058.9359	1670.1542	-1518.6733	1025.0782	1708.0828	-1551.1239	1059.3296	1672.1918	-1585.4771	-238.08116	1170.4325	-194.63693	-153.36943	1173.0428	-193.85324	-201.05188	1208.8925	-193.9024	-202.32924	1171.3123	-162.72533	-200.5632	1172.8694	-241.64633																																														-1068.4945	210.15466	-1625.0582	-1073.6232	248.80737	-1624.2423	-1321.3339	231.7014	1024.9696	-1319.9586	270.44925	1029.1782	848.25568	183.69052	1196.1418	851.96667	222.45058	1193.9315	1088.9243	202.84602	-1428.2535	1082.8428	241.1347	-1432.4951	-1171.8872	1687.0806	-1581.7484	-1170.6102	1648.1022	-1581.535	-1271.0782	1699.0229	1098.0493	-1271.811	1660.0494	1099.2842	952.91913	1705.6985	1186.9244	972.94904	1733.833	1168.8066	1026.5912	1669.2242	-1551.5135	1028.1084	1630.2559	-1551.9044	-199.8994	1171.6089	-194.28369	-198.69455	1132.6296	-194.68234
1458	12.141667	-1038.2102	214.60764	-1644.1068	-1109.3572	204.22321	-1599.4025	-1063.557	173.04327	-1625.8717	-1054.1106	262.28372	-1634.8756	-1352.7133	235.09209	1003.5872	-1281.3572	227.37016	1052.1724	-1322.6656	194.0159	1020.7691	-1284.374	287.97079	1052.693	813.92688	187.80313	1209.4497	892.32196	178.61716	1178.8979	844.60699	145.31473	1198.386	861.23792	292.54355	1168.5712	1115.8447	209.75269	-1401.6544	1056.3422	194.10738	-1460.1915	1095.2385	162.46078	-1423.7532	1069.7579	238.95271	-1425.8997	-1204.6456	1686.124	-1562.9705	-1129.1144	1688.3085	-1605.9937	-1173.1377	1724.4716	-1581.9574	-1134.0122	1581.0515	-1603.8207	-1239.5765	1699.0901	1119.4572	-1309.4537	1698.976	1072.0109	-1270.2732	1736.0988	1096.8398	-1245.5581	1592.7513	1110.6715	988.84698	1664.2068	1162.194	957.32581	1700.5262	1183.8701	922.67621	1662.212	1215.0172	939.85956	1659.4349	1159.8058	999.16107	1668.4268	-1579.3379	1058.7422	1669.8666	-1518.744	1025.0765	1708.0612	-1551.1219	1059.3474	1672.156	-1585.3759	-238.07545	1170.4081	-194.64043	-153.35898	1173.0533	-193.85376	-201.04878	1208.8958	-193.89017	-202.25522	1171.2638	-162.67538	-200.56625	1172.8628	-241.64639																																														-1068.484	210.1889	-1625.0844	-1073.6111	248.84177	-1624.2653	-1321.4036	231.70384	1024.9053	-1320.106	270.44962	1029.1577	848.21832	183.785	1196.0858	851.85699	222.54567	1193.7684	1088.951	202.6814	-1428.1117	1082.9617	240.99445	-1432.2635	-1171.8738	1687.0717	-1581.6375	-1170.5566	1648.0953	-1581.3042	-1271.0564	1699.0386	1098.0824	-1271.8799	1660.0692	1099.389	953.06873	1705.4313	1186.7974	972.85699	1733.5708	1168.424	1026.4692	1669.0865	-1551.5653	1027.8621	1630.114	-1552.0088	-199.88055	1171.6007	-194.28575	-198.65961	1132.6219	-194.69919
1459	12.15	-1038.2056	214.59145	-1644.0792	-1109.375	204.15671	-1599.3915	-1063.5818	172.96021	-1625.8383	-1054.1322	262.27829	-1634.8612	-1352.6454	235.1709	1003.5229	-1281.3071	227.40181	1052.1863	-1322.6969	193.94458	1020.8574	-1284.3551	287.98569	1052.6385	814.02191	187.67601	1209.5336	892.22937	178.47241	1179.0104	844.54736	145.4429	1198.2673	861.08911	292.39603	1168.5519	1115.9087	210.0352	-1401.8063	1056.3455	194.09854	-1460.1959	1095.2686	162.52617	-1423.764	1069.7405	238.95972	-1425.9337	-1204.6531	1686.1445	-1562.9619	-1129.1056	1688.3501	-1606.2183	-1173.1368	1724.4624	-1581.9517	-1134.0072	1581.0499	-1603.821	-1239.5933	1699.1118	1119.4806	-1309.4205	1698.9479	1071.9917	-1270.3739	1736.2129	1096.8746	-1245.5383	1592.698	1110.6603	988.83765	1664.2174	1162.1812	957.32208	1700.5316	1183.8334	921.94037	1662.2759	1214.8781	939.79749	1659.4474	1159.8108	999.1734	1668.4459	-1579.3486	1058.9336	1670.1559	-1518.6669	1025.0789	1708.073	-1551.1208	1059.3484	1672.1587	-1585.3748	-238.06914	1170.4211	-194.64229	-153.35849	1173.0444	-193.85548	-201.05786	1208.8961	-193.90599	-202.30913	1171.2977	-162.72154	-200.55849	1172.8522	-241.62938																																														-1068.531	210.14517	-1625.0376	-1073.6753	248.79546	-1624.2053	-1321.3271	231.76018	1024.8865	-1319.9233	270.51553	1029.0159	848.23004	183.65033	1196.1826	851.96625	222.41328	1194.0676	1088.91	202.81146	-1428.2728	1082.8665	241.10126	-1432.5586	-1171.9081	1687.1005	-1581.7107	-1170.6263	1648.1223	-1581.4592	-1271.0919	1699.0378	1098.0586	-1271.8447	1660.0648	1099.2999	952.81091	1705.7295	1186.9326	972.81525	1733.8878	1168.8236	1026.5873	1669.2302	-1551.5118	1028.1006	1630.2617	-1551.9042	-199.89938	1171.603	-194.28777	-198.68852	1132.6239	-194.68678
1460	12.158333	-1038.2225	214.67348	-1644.1316	-1109.3724	204.21053	-1599.4263	-1063.5454	173.00336	-1625.8883	-1054.1157	262.26282	-1634.8425	-1352.6827	235.1165	1003.5668	-1281.318	227.37845	1052.1987	-1322.7389	193.9037	1020.9359	-1284.4314	287.9509	1052.6801	814.06641	187.67146	1209.5114	892.3537	178.63263	1178.9829	844.5907	145.4615	1198.3075	861.03967	292.54977	1168.6097	1115.8492	209.74239	-1401.6768	1056.3551	194.11873	-1460.1708	1095.2734	162.58156	-1423.7686	1069.739	238.90305	-1425.9048	-1204.6543	1686.134	-1562.9755	-1129.1353	1688.3499	-1606.2267	-1173.1079	1724.3932	-1581.9415	-1134.0144	1581.0464	-1603.8081	-1239.5828	1699.1068	1119.4724	-1309.2566	1698.7163	1071.9136	-1270.3977	1736.2314	1096.8802	-1245.5459	1592.7227	1110.6632	988.81274	1664.1862	1162.1781	957.30457	1700.5004	1183.8297	922.0509	1662.3085	1214.8846	939.81592	1659.387	1159.8403	999.16858	1668.4584	-1579.3766	1058.8951	1670.0505	-1518.7361	1025.0811	1708.0824	-1551.1257	1059.3468	1672.1544	-1585.3749	-238.09161	1170.4451	-194.63135	-153.36945	1173.0443	-193.85698	-201.06587	1208.8918	-193.89125	-202.30627	1171.2909	-162.70274	-200.56209	1172.8594	-241.63695																																														-1068.5195	210.21811	-1625.095	-1073.6853	248.86572	-1624.2711	-1321.3517	231.71928	1024.9174	-1319.9299	270.47913	1028.9984	848.18933	183.73172	1196.205	851.83508	222.50247	1194.0748	1088.9872	202.68819	-1428.0872	1082.9821	241.00159	-1432.2129	-1171.8961	1687.0951	-1581.7366	-1170.6299	1648.1162	-1581.5226	-1270.9805	1698.9308	1098.0404	-1271.5896	1659.9543	1099.2528	952.81378	1705.6758	1186.9154	972.78381	1733.8282	1168.7593	1026.5623	1669.1885	-1551.5635	1028.0465	1630.2192	-1552.0022	-199.91867	1171.6162	-194.28244	-198.71907	1132.6368	-194.69153
1461	12.166667	-1038.1936	214.61861	-1644.0825	-1109.3917	204.22702	-1599.4006	-1063.5355	172.99033	-1625.8711	-1054.1396	262.28705	-1634.939	-1352.6575	235.16266	1003.5287	-1281.2778	227.40454	1052.2731	-1322.6483	194.0199	1020.8107	-1284.2556	288.01297	1052.5774	813.94043	187.70374	1209.4792	892.237	178.46021	1179.0436	844.59906	145.43388	1198.3458	861.14807	292.61871	1168.5607	1115.91	210.0392	-1401.8046	1056.3365	194.13071	-1460.2191	1095.2542	162.49669	-1423.7849	1069.7463	238.92424	-1425.9053	-1204.6473	1686.1284	-1562.9799	-1129.1035	1688.3793	-1606.2438	-1173.1835	1724.3724	-1581.8616	-1134.0146	1581.0383	-1603.8037	-1239.5658	1699.0559	1119.4509	-1309.2716	1698.7238	1071.9225	-1270.2394	1736.0383	1096.8134	-1245.5826	1592.8296	1110.7102	988.81079	1664.1978	1162.1796	957.29572	1700.5691	1183.801	922.06183	1662.3007	1214.8444	939.81152	1659.4222	1159.8177	999.16492	1668.4448	-1579.3464	1058.741	1669.8528	-1518.756	1025.073	1708.0746	-1551.1202	1059.3507	1672.1521	-1585.3646	-238.05846	1170.415	-194.63725	-153.36945	1173.0312	-193.82913	-201.06444	1208.9276	-193.91382	-202.29976	1171.2822	-162.6868	-200.56639	1172.8593	-241.6174																																														-1068.4707	210.19954	-1625.0813	-1073.5974	248.85239	-1624.261	-1321.3462	231.75949	1024.9106	-1320.0094	270.50858	1029.1204	848.25391	183.65274	1196.1406	851.96045	222.41176	1193.9045	1088.9004	202.82657	-1428.2886	1082.8679	241.11916	-1432.5646	-1171.9751	1687.1017	-1581.691	-1170.7117	1648.1227	-1581.5127	-1270.9205	1698.9064	1098.0718	-1271.6356	1659.9353	1099.3928	952.88312	1705.6614	1186.8282	972.87543	1733.7874	1168.6558	1026.4641	1669.09	-1551.5823	1027.855	1630.1174	-1552.0442	-199.90771	1171.5935	-194.27321	-198.70004	1132.614	-194.64844
